<svg xmlns="http://www.w3.org/2000/svg" width="64" height="64" viewBox="0 0 64 64">
  <ellipse cx="32" cy="54" rx="24" ry="4" fill="#333" opacity="0.2"/>
  <path d="M32 14 Q18 10 8 14 L8 50 Q18 46 32 50 Z" fill="#e8dcc8"/>
  <path d="M32 14 Q46 10 56 14 L56 50 Q46 46 32 50 Z" fill="#f0e6d0"/>
  <path d="M32 14 L32 50" stroke="#c8b090" stroke-width="2"/>
  <line x1="13" y1="22" x2="27" y2="20" stroke="#b09070" stroke-width="1" opacity="0.6"/>
  <line x1="13" y1="27" x2="27" y2="25" stroke="#b09070" stroke-width="1" opacity="0.6"/>
  <line x1="13" y1="32" x2="27" y2="30" stroke="#b09070" stroke-width="1" opacity="0.6"/>
  <line x1="13" y1="37" x2="27" y2="35" stroke="#b09070" stroke-width="1" opacity="0.6"/>
  <line x1="37" y1="20" x2="51" y2="22" stroke="#b09070" stroke-width="1" opacity="0.6"/>
  <line x1="37" y1="25" x2="51" y2="27" stroke="#b09070" stroke-width="1" opacity="0.6"/>
  <line x1="37" y1="30" x2="51" y2="32" stroke="#b09070" stroke-width="1" opacity="0.6"/>
  <line x1="37" y1="35" x2="51" y2="37" stroke="#b09070" stroke-width="1" opacity="0.6"/>
  <path d="M8 14 Q18 10 32 14 Q18 10 8 14" fill="#8b4513"/>
  <path d="M56 14 Q46 10 32 14 Q46 10 56 14" fill="#8b4513"/>
</svg>
